<?xml version="1.0" standalone="no"?>
<!DOCTYPE svg PUBLIC "-//W3C//DTD SVG 20010904//EN"
 "http://www.w3.org/TR/2001/REC-SVG-20010904/DTD/svg10.dtd">
<svg version="1.0" xmlns="http://www.w3.org/2000/svg"
 width="1000.000000pt" height="1000.000000pt" viewBox="0 0 1000.000000 1000.000000"
 preserveAspectRatio="xMidYMid meet">
<metadata>
Created by potrace 1.11, written by Peter Selinger 2001-2013
</metadata>
<g transform="translate(0.000000,1000.000000) scale(0.100000,-0.100000)"
fill="#000000" stroke="none">
<path d="M1420 6633 c-41 -7 -86 -14 -100 -17 -100 -16 -284 -79 -395 -133
-496 -247 -836 -717 -909 -1258 -15 -116 -14 -368 3 -470 59 -351 214 -659
459 -909 455 -464 1140 -615 1746 -385 117 45 363 177 386 207 3 4 23 20 45
37 228 168 441 466 541 757 19 53 36 111 39 129 3 18 8 35 10 39 2 4 6 20 9
36 3 16 10 58 16 94 6 36 13 88 15 115 2 28 4 52 4 55 2 11 780 6 784 -4 2 -6
3 -361 3 -788 -1 -428 2 -778 6 -778 3 0 116 64 250 141 133 78 257 149 273
159 67 38 211 122 225 130 8 6 125 73 260 151 299 172 529 305 718 416 79 45
146 83 149 83 4 0 14 6 22 14 9 7 43 28 76 46 33 18 85 47 115 65 66 39 181
106 442 257 l198 114 167 0 168 -1 1 -782 c0 -430 3 -785 6 -788 4 -5 222 116
318 176 15 9 216 125 280 162 165 93 440 253 462 268 15 11 29 19 32 19 3 0
43 22 88 49 46 27 99 58 118 69 135 77 913 527 1020 591 92 54 124 72 220 126
196 111 292 169 293 180 0 8 -188 120 -468 280 -22 12 -155 89 -295 170 -140
81 -271 156 -290 167 -172 99 -930 536 -1021 589 -64 38 -143 83 -175 100 -33
18 -70 40 -84 49 -14 9 -50 31 -80 47 -30 17 -95 54 -145 83 -49 28 -108 62
-130 75 -22 12 -64 36 -92 53 -45 27 -53 29 -54 14 -1 -9 -2 -363 -3 -787 l-1
-770 -167 -1 -167 -1 -563 325 c-310 178 -576 332 -593 342 -478 275 -836 481
-944 544 -62 36 -115 66 -116 66 -2 0 -71 41 -155 90 -84 50 -153 90 -155 90
-2 0 -37 20 -78 44 -41 24 -88 51 -103 59 l-29 15 0 -787 0 -786 -393 -1
c-276 -1 -392 2 -393 10 -12 176 -51 359 -108 507 -112 289 -310 549 -561 736
-50 37 -216 143 -225 143 -2 0 -36 15 -77 34 -130 59 -285 105 -428 127 -108
17 -380 18 -470 2z m405 -405 c6 -3 31 -9 57 -12 61 -8 203 -55 292 -95 303
-140 558 -438 655 -767 31 -108 54 -253 43 -271 -5 -7 -161 -10 -485 -9 l-477
1 -20 41 c-84 169 -314 205 -440 68 -57 -62 -74 -105 -73 -189 0 -132 83 -235
211 -260 131 -26 262 42 308 160 l15 41 482 -1 482 0 -1 -25 c-1 -33 -14 -133
-19 -156 -56 -248 -165 -445 -339 -619 -56 -55 -133 -121 -171 -147 -112 -74
-283 -154 -367 -172 -195 -42 -206 -43 -348 -41 -80 2 -157 6 -172 9 -16 3
-38 8 -50 10 -218 38 -455 165 -626 334 -250 248 -375 554 -367 907 6 318 131
612 355 835 196 196 423 311 705 358 56 9 335 9 350 0z m2735 -331 c8 -4 31
-17 50 -28 33 -20 513 -298 590 -341 19 -11 172 -99 340 -196 168 -97 333
-191 368 -211 34 -19 62 -38 62 -41 0 -3 -146 -6 -324 -6 l-325 -1 -17 39
c-71 158 -288 207 -419 95 -21 -17 -51 -55 -67 -83 l-29 -52 -152 2 -152 1 -1
420 c0 231 2 426 4 432 3 10 11 8 31 -5 14 -11 33 -22 41 -25z m3260 -110
c129 -74 251 -143 270 -154 19 -11 139 -80 265 -153 127 -73 364 -209 527
-303 164 -94 297 -171 295 -173 -8 -7 -470 -274 -474 -274 -3 0 -17 -8 -31
-19 -15 -10 -47 -29 -72 -43 -64 -36 -272 -156 -290 -168 -13 -8 -85 -50 -189
-110 -98 -56 -299 -173 -311 -180 -86 -54 -243 -139 -248 -136 -5 3 -8 830 -3
857 1 3 69 5 151 5 l150 -1 24 -50 c38 -84 127 -147 220 -158 42 -5 124 11
155 30 37 23 101 85 101 98 0 6 5 16 12 23 18 18 21 39 21 127 1 70 -3 86 -28
129 -29 50 -92 102 -148 123 -46 17 -126 15 -181 -3 -56 -19 -139 -97 -155
-146 l-11 -34 -153 0 c-83 -1 -154 3 -157 7 -4 6 -5 794 -1 848 1 9 5 10 14 3
6 -5 118 -70 247 -145z m-3028 -857 c2 -3 12 -23 22 -46 58 -133 217 -193 356
-133 58 25 104 71 135 135 l24 49 325 1 c179 0 326 -1 326 -2 0 -2 -57 -38
-95 -59 -11 -7 -63 -36 -115 -67 -52 -30 -115 -66 -140 -80 -25 -14 -290 -168
-589 -342 -300 -174 -547 -312 -550 -307 -5 8 -7 854 -2 857 5 3 300 -2 303
-6z"/>
</g>
</svg>
