<?xml version="1.0" encoding="UTF-8" standalone="no"?><!DOCTYPE svg PUBLIC "-//W3C//DTD SVG 1.1//EN" "http://www.w3.org/Graphics/SVG/1.1/DTD/svg11.dtd"><svg width="100%" height="100%" viewBox="0 0 1000 330" version="1.1" xmlns="http://www.w3.org/2000/svg" xmlns:xlink="http://www.w3.org/1999/xlink" xml:space="preserve" xmlns:serif="http://www.serif.com/" style="fill-rule:evenodd;clip-rule:evenodd;stroke-linejoin:round;stroke-miterlimit:1.41421;"><rect id="Artboard2" x="0" y="0" width="1000" height="329.7" style="fill:none;"/><g><rect x="164.505" y="157.679" width="648.464" height="13.652" style="fill:#999;"/><path d="M164.505,329.693c-90.785,0 -164.505,-74.403 -164.505,-165.188c0,-90.785 73.72,-164.505 164.505,-164.505c90.785,0 164.505,73.72 164.505,164.505c0,90.785 -73.72,165.188 -164.505,165.188Zm0,-288.737c-68.259,0 -123.549,55.972 -123.549,123.549c0,67.577 55.29,123.55 123.549,123.55c68.26,0 123.55,-55.29 123.55,-123.55c0,-68.259 -55.29,-123.549 -123.55,-123.549Zm0,96.928c15.072,0 27.304,12.232 27.304,27.304c0,15.071 -12.232,27.303 -27.304,27.303c-15.072,0 -27.304,-12.232 -27.304,-27.303c0,-15.072 12.232,-27.304 27.304,-27.304Z" style="fill:#ff6200;"/><path d="M407.509,329.693l0,-329.693l285.324,164.505l-285.324,165.188Zm40.955,-258.703l0,187.713l162.458,-94.198l-162.458,-93.515Zm57.338,66.894c15.072,0 27.304,12.232 27.304,27.304c0,15.071 -12.232,27.303 -27.304,27.303c-15.072,0 -27.304,-12.232 -27.304,-27.303c0,-15.072 12.232,-27.304 27.304,-27.304Z" style="fill:#ffb900;"/><path d="M714.676,329.693l0,-329.693l285.324,164.505l-285.324,165.188Zm40.955,-258.703l0,187.713l162.458,-94.198l-162.458,-93.515Zm57.338,66.894c15.072,0 27.304,12.232 27.304,27.304c0,15.071 -12.232,27.303 -27.304,27.303c-15.071,0 -27.303,-12.232 -27.303,-27.303c0,-15.072 12.232,-27.304 27.303,-27.304Z" style="fill:#0081ff;"/></g></svg>